<svg width="95" height="100" viewBox="0 0 95 100" fill="none" xmlns="http://www.w3.org/2000/svg">
<path d="M47.5988 51.4761C39.403 51.4956 31.1087 52.9423 23.6418 55.8749C19.0317 57.6735 14.0866 60.2737 10.895 64.4379C7.34869 69.0518 7.4078 74.2913 11.4466 78.9052C12.077 79.7067 12.1953 80.6843 11.5451 81.2708C10.5994 82.131 8.96421 81.8182 7.23048 81.2708C6.0878 80.9189 4.17675 80.0587 2.85675 78.4751C2.71884 78.2991 1.32003 76.9501 0.453168 74.3108C-0.413697 71.6716 3.39301e-05 68.524 1.55645 65.5719C4.13735 60.6843 8.51108 57.3998 13.0818 54.9951C23.7403 49.4624 36.172 47.2727 48.2687 47.3118C48.2687 47.3118 50.1206 35.5425 50.9481 30.2444C52.7606 30.9677 57.1147 31.3588 57.2723 31.3392C56.4842 36.4614 54.8884 46.7253 54.7702 47.566C54.8884 47.566 57.9421 47.781 59.3409 47.957C66.5517 48.739 73.8412 50.3617 80.52 53.4506C85.1893 55.6207 90.2132 58.6901 93.0305 63.4604C99.0197 73.5875 89.0508 82.3851 81.3081 86.4125C69.4872 93.2356 52.6621 95.6207 37.7678 93.783C37.3344 93.7243 35.5218 93.5093 34.5565 93.3138C33.1971 93.0205 31.483 92.5318 30.3797 91.3196C28.5081 89.2278 28.6657 88.2111 33.1971 88.7977C35.4036 89.0909 39.8759 89.521 45.3726 89.5601C53.5881 89.4037 62.4735 88.172 68.6794 86.3539C69.763 85.9824 70.8269 85.5523 71.8711 85.1026C78.1756 82.3851 88.44 76.2659 85.6621 67.175C82.8054 57.8495 70.3344 54.4086 62.5917 52.8446C59.932 52.2972 55.2627 51.6911 54.1397 51.6911C53.8245 53.6852 53.2138 57.6735 53.2138 57.7517C55.3218 57.9277 57.3905 58.1623 59.4 58.4946C59.7941 58.5728 60.5033 58.7879 60.9762 59.0225C62.3356 59.6872 62.5326 60.8407 57.2329 61.349C55.243 61.5249 54.8293 61.5249 54.2579 61.4663C54.1003 61.4663 52.8 61.349 52.6424 61.3294C52.3075 63.3431 51.6968 67.1359 51.6968 67.2141C54.4156 67.781 56.3069 68.9932 56.3463 70.4399C56.3857 72.5318 52.5833 74.2913 47.8747 74.3891C43.1463 74.4868 39.2651 72.9032 39.2257 70.8309C39.1863 69.13 41.7081 67.6246 45.215 67.0968C45.215 67.0186 45.8257 63.1281 46.1606 61.0362C40.9594 61.2121 35.7188 62.4438 31.5815 65.3959C29.8084 66.6471 27.523 68.6217 27.7594 71.0655C27.7988 71.6129 27.8776 71.9844 28.2323 72.5709C29.04 73.9394 34.0245 78.9247 47.5397 78.6119C60.2472 78.3187 67.0836 73.4506 67.9899 72.8641C68.7385 72.3558 69.6645 71.3979 70.157 70.6354C70.886 69.306 70.7481 68.739 70.0585 66.9404C69.5463 65.6305 69.8615 62.698 72.9153 64.1838C74.255 64.8094 75.3385 66.2952 75.6538 66.8817C78.4514 71.828 72.5212 76.5396 67.852 78.6901C59.3015 82.6393 49.0173 83.3627 39.8365 82.3851C35.443 81.9159 31.0693 81.0948 26.9714 79.3548C24.3117 78.2405 21.2973 76.6764 19.6621 74.0567C15.9779 68.1525 22.8341 63.5777 27.1487 61.6031C33.197 58.8465 39.9941 57.6344 46.732 57.5171" fill="white"/>
<path d="M72.6986 15.8162C72.6986 24.3988 65.8227 31.3783 57.2329 31.6129C57.0753 31.6129 56.9177 31.6129 56.76 31.6129C54.6914 31.6129 52.7015 31.2219 50.889 30.4985C44.9983 28.172 40.8215 22.4633 40.8215 15.7967C40.8412 7.07722 47.9732 0 56.76 0C65.5469 0 72.6986 7.07722 72.6986 15.8162Z" fill="#D1233E"/>
</svg>
