<svg width="662" height="180" viewBox="0 0 662 180" fill="none" xmlns="http://www.w3.org/2000/svg">
<path d="M624.068 7.54163L661.496 1.93896V131.101H624.068V7.54163Z" fill="white"/>
<path d="M238.853 7.54163L276.314 1.93896V131.101H238.853V7.54163Z" fill="white"/>
<path d="M590.539 14.2792C581.04 4.77468 568.176 0.00574307 552.045 0.00574307C542.86 -0.118391 533.759 1.77117 525.382 5.54172C517.545 9.03641 510.68 14.3943 505.384 21.1492C505.374 21.2266 505.374 21.3052 505.384 21.3826C503.772 18.8248 501.896 16.4438 499.785 14.2792C490.253 4.7858 477.411 0.0279759 461.257 0.00574307C452.119 -0.113692 443.065 1.76422 434.728 5.50837C426.894 9.0077 420.03 14.3648 414.731 21.1158C410.347 14.3731 404.188 8.97218 396.933 5.50837C389.215 1.82636 380.752 -0.0225378 372.203 0.10579C364.348 0.0104965 356.552 1.4844 349.273 4.44119C342.514 7.1838 336.48 11.4524 331.642 16.9138V1.94L295.881 7.54267V131.102H333.309V66.2707C333.309 55.0653 335.842 46.628 340.974 40.9586C343.579 38.1119 346.777 35.872 350.342 34.3969C353.906 32.9217 357.751 32.2473 361.605 32.4212C377.936 32.4212 386.101 42.5816 386.101 62.9024V131.102H423.529V66.2707C423.529 55.1543 426.084 46.7169 431.195 40.9586C433.842 38.0929 437.085 35.8432 440.696 34.3681C444.307 32.893 448.197 32.2284 452.092 32.4212C455.485 32.2215 458.88 32.7996 462.016 34.1115C465.152 35.4235 467.948 37.4345 470.189 39.9915C474.411 45.0383 476.533 52.6753 476.555 62.9024V131.102H513.983V129.968C514.217 130.701 514.317 131.102 514.317 131.102V66.2707C514.317 55.1543 516.883 46.7169 522.015 40.9586C524.659 38.0973 527.897 35.8502 531.501 34.3753C535.106 32.9003 538.99 32.2333 542.879 32.4212C546.277 32.2263 549.675 32.8065 552.816 34.1179C555.956 35.4293 558.758 37.4378 561.01 39.9915C565.232 45.0383 567.342 52.6753 567.342 62.9024V131.102H604.804V57.1663C604.826 38.0906 600.071 23.7949 590.539 14.2792Z" fill="white"/>
<path d="M6.68604 126.299C4.50204 124.118 2.78472 121.515 1.63874 118.648C0.49275 115.782 -0.0579111 112.711 0.0203058 109.625C-0.113121 106.532 0.412179 103.445 1.56137 100.57C2.71057 97.6956 4.4574 95.0982 6.68604 92.9502C8.9008 90.833 11.5154 89.1791 14.3768 88.0853C17.2382 86.9916 20.2889 86.48 23.3504 86.5805C26.4116 86.4819 29.4618 86.9943 32.3229 88.088C35.1841 89.1816 37.7988 90.8345 40.0147 92.9502C42.2382 95.102 43.9816 97.7001 45.1304 100.574C46.2792 103.448 46.8074 106.532 46.6804 109.625C46.7509 112.71 46.1967 115.778 45.0511 118.644C43.9056 121.51 42.1924 124.114 40.0147 126.299C37.842 128.494 35.2416 130.219 32.3749 131.366C29.5083 132.514 26.4365 133.059 23.3504 132.969C20.2639 133.061 17.1916 132.517 14.3247 131.369C11.4577 130.222 8.85755 128.496 6.68604 126.299Z" fill="#EF4444"/>
<path d="M220.193 1.90542V109.49C220.193 133.168 214.027 150.776 201.695 162.315C189.364 173.854 171.366 179.612 147.703 179.59C135.72 179.664 123.782 178.127 112.208 175.021C102.121 172.487 92.6457 167.951 84.345 161.682L99.2429 134.802C105.407 139.697 112.457 143.354 120.007 145.574C128.07 148.19 136.493 149.529 144.97 149.542C157.935 149.542 167.467 146.641 173.632 140.772C179.798 134.902 182.864 126.098 182.864 114.092V108.89C173.132 119.628 159.534 124.997 142.07 124.997C130.76 125.124 119.595 122.442 109.575 117.194C99.9387 112.137 91.8704 104.536 86.2447 95.2166C80.3721 85.3557 77.3814 74.0443 77.6126 62.5677C77.3823 51.0806 80.3727 39.7587 86.2447 29.8854C91.8711 20.5749 99.94 12.9854 109.575 7.94163C119.595 2.69293 130.76 0.0117267 142.07 0.137916C160.801 0.137916 175.043 6.29641 184.798 18.6134V7.54145L220.193 1.90542ZM173.732 85.2785C176.883 82.3877 179.372 78.8496 181.028 74.9067C182.685 70.9638 183.471 66.7092 183.331 62.4343C183.496 58.1506 182.732 53.882 181.092 49.9216C179.453 45.9611 176.976 42.4025 173.832 39.49C167.17 33.5139 158.443 30.3681 149.502 30.7192C140.513 30.3805 131.74 33.5219 125.006 39.49C121.837 42.3878 119.337 45.9413 117.679 49.9036C116.022 53.8659 115.246 58.1419 115.407 62.4343C115.249 66.7215 116.026 70.9917 117.683 74.9482C119.341 78.9047 121.84 82.4526 125.006 85.3452C131.733 91.3254 140.511 94.4686 149.502 94.1161C158.411 94.4549 167.102 91.309 173.732 85.3452V85.2785Z" fill="white"/>
</svg>
