<svg width="462" height="100" viewBox="0 0 462 100" fill="none" xmlns="http://www.w3.org/2000/svg">
<g clip-path="url(#clip0_501_3361)">
<path d="M203.635 54.4477V80.2737H194.434V54.7019C194.434 53.6266 194.434 52.5513 194.395 51.5152C194.375 50.5768 194.217 49.697 193.942 48.8954C193.567 47.5269 192.838 46.5298 191.715 45.8065C190.553 45.0831 188.76 44.7117 186.396 44.7117C184.82 44.7117 183.421 44.9463 182.101 45.3177C180.801 45.6696 179.619 46.3343 178.712 46.8817C177.845 47.4096 177.156 47.9961 176.703 48.6608C176.269 49.2864 176.053 49.8925 176.053 50.479V80.2737H166.852V16.2072C166.852 16.2072 168.98 16.1095 169.197 16.1095C171.029 16.1095 172.605 16.5787 173.905 17.4976C175.284 18.4751 175.974 20.2346 175.974 22.7371V40.3324C177.333 39.1985 178.909 38.2991 180.702 37.6344C183.145 36.7156 185.785 36.2659 188.524 36.2659C190.671 36.2659 192.582 36.5396 194.237 37.0479C195.892 37.5758 197.33 38.2991 198.493 39.218C199.655 40.1369 200.62 41.1926 201.389 42.3852C202.137 43.5777 202.689 44.8485 203.004 46.1584C203.32 47.3705 203.497 48.739 203.556 50.2248C203.615 51.6911 203.654 53.0987 203.654 54.4477H203.635Z" fill="white"/>
<path d="M295.542 48.172C294.596 45.3959 293.276 43.1085 291.641 41.349C290.006 39.5894 288.075 38.2991 285.908 37.4976C283.78 36.696 281.495 36.305 279.091 36.305C275.959 36.305 273.299 36.8329 271.191 37.869C269.615 38.6315 268.275 39.5308 267.211 40.5474C266.758 39.5112 266.088 38.7097 265.221 38.1818C264.059 37.4585 262.66 37.087 261.104 37.087C260.828 37.087 258.582 37.2043 258.582 37.2043V99.9218H267.783V78.1818C268.452 78.7097 269.26 79.2766 270.245 79.8632C272.196 81.0166 274.875 81.6031 278.205 81.6031C280.293 81.6031 282.48 81.2317 284.687 80.5083C286.932 79.7654 288.981 78.4751 290.814 76.696C292.646 74.9169 294.143 72.4927 295.266 69.4819C296.389 66.4907 296.961 62.7175 296.961 58.2405C296.961 54.2913 296.488 50.9091 295.542 48.1525V48.172ZM287.228 58.7292C287.228 63.5777 286.341 67.3118 284.588 69.8534C282.874 72.3363 280.372 73.5288 276.983 73.5288C275.821 73.5288 274.737 73.3724 273.732 73.0401C272.688 72.7077 271.762 72.3167 270.955 71.8671C270.167 71.437 269.497 70.9678 268.945 70.4594C268.472 70.0293 268.098 69.6188 267.783 69.2473V49.521C267.783 48.1721 268.571 47.0186 270.186 46.002C271.9 44.9267 274.127 44.3793 276.806 44.3793C278.776 44.3793 280.451 44.7507 281.771 45.4546C283.091 46.1779 284.155 47.1554 284.923 48.3871C285.731 49.6383 286.302 51.1828 286.676 52.9423C287.051 54.7605 287.228 56.696 287.228 58.7488V58.7292Z" fill="white"/>
<path d="M158.262 62.8152C158.262 65.8455 157.75 68.563 156.745 70.8895C155.74 73.216 154.282 75.2102 152.45 76.8133C150.618 78.4164 148.392 79.6285 145.83 80.4106C143.309 81.1926 140.491 81.6031 137.477 81.6031C134.167 81.6031 131.035 81.2317 128.178 80.5278C125.282 79.8045 122.957 78.8074 121.282 77.5757C119.588 76.4418 118.721 75.1124 118.721 73.6461C118.721 72.8641 118.997 71.9257 119.627 70.7918C120.376 69.4233 122.09 67.1945 122.09 67.1945C122.09 67.1945 126.09 70.2053 129.34 71.6129C131.862 72.7077 134.601 73.2551 137.477 73.2551C139.664 73.2551 141.516 72.9814 142.954 72.434C144.373 71.8866 145.515 71.1828 146.343 70.3421C147.17 69.5015 147.781 68.5239 148.155 67.4291C148.549 66.3148 148.727 65.1417 148.727 63.9492C148.727 62.4242 148.49 61.0753 148.037 59.9413C147.584 58.827 146.894 57.8495 146.008 57.0088C145.101 56.1681 143.939 55.4448 142.54 54.8387C141.102 54.2131 139.427 53.607 137.556 53.0205C135.349 52.3754 133.202 51.6129 131.173 50.7918C129.104 49.9511 127.213 48.8758 125.577 47.5855C123.922 46.2757 122.583 44.653 121.578 42.737C120.573 40.8016 120.061 38.3969 120.061 35.5816C120.061 32.7664 120.573 30.3617 121.598 28.2307C122.602 26.1192 124.021 24.3011 125.774 22.8934C127.508 21.4858 129.616 20.391 132.02 19.6676C134.404 18.9443 137.024 18.5728 139.802 18.5728C142.028 18.5728 144.471 18.8661 147.032 19.433C149.633 20 151.879 20.8602 153.711 21.955C154.716 22.5806 155.583 23.2649 156.272 23.9883C157.08 24.8289 157.474 25.8064 157.474 26.9013C157.474 27.7615 157.139 28.6999 156.489 29.6579C155.898 30.5181 153.75 32.7859 153.75 32.7859C153.75 32.7859 152.273 31.5151 151.248 30.7136C150.46 30.1075 149.515 29.5406 148.392 29.0127C147.269 28.4848 145.949 28.0156 144.491 27.6051C143.053 27.2141 141.476 27.0186 139.782 27.0186C137.812 27.0186 136.177 27.2532 134.876 27.7224C133.596 28.1916 132.552 28.7781 131.783 29.4819C131.035 30.1857 130.463 31.0264 130.128 31.9648C129.774 32.9619 129.596 33.9785 129.596 34.9951C129.596 36.305 129.872 37.4584 130.384 38.3773C130.916 39.3157 131.704 40.1564 132.729 40.8798C133.793 41.6227 135.113 42.3265 136.65 42.9521C138.226 43.5973 140.058 44.2424 142.107 44.868C144.215 45.5327 146.244 46.3148 148.136 47.2532C150.066 48.1916 151.8 49.3842 153.278 50.7918C154.775 52.219 155.977 53.9003 156.883 55.8358C157.789 57.7908 158.242 60.1368 158.242 62.8348L158.262 62.8152Z" fill="white"/>
<path d="M340.698 22.4243C340.796 23.9687 340.245 25.2786 339.358 26.3343C338.413 27.4487 336.777 27.9961 334.374 27.9961H314.002V43.9492H334.137V52.2972H314.002V80.2933H304.625V19.7654H340.304C340.304 19.7654 340.599 20.6452 340.718 22.4438L340.698 22.4243Z" fill="white"/>
<path d="M250.367 50.2053C249.638 47.5269 248.455 45.1417 246.86 43.089C245.244 41.0362 243.156 39.3744 240.614 38.1427C238.073 36.9306 234.98 36.305 231.374 36.305C227.769 36.305 224.912 36.9306 222.351 38.1427C219.79 39.3744 217.642 41.0166 215.909 43.0694C214.195 45.1026 212.875 47.5269 212.027 50.2639C211.18 52.9814 210.747 55.8749 210.747 58.8661C210.747 61.8573 211.101 64.7507 211.83 67.4878C212.559 70.2444 213.761 72.7077 215.337 74.7801C216.953 76.872 219.061 78.5533 221.622 79.785C224.183 80.9971 227.316 81.6227 230.98 81.6227C234.645 81.6227 237.817 80.9775 240.398 79.6872C242.978 78.3969 245.126 76.6569 246.761 74.5064C248.396 72.3754 249.578 69.8925 250.307 67.1359C251.036 64.4184 251.411 61.5445 251.411 58.6119C251.411 55.6794 251.036 52.8446 250.307 50.2053H250.367ZM236.497 72.219C235.098 73.0987 233.266 73.5484 231.059 73.5484C228.852 73.5484 227.158 73.0987 225.818 72.2385C224.439 71.3392 223.336 70.1857 222.509 68.8172C221.681 67.4096 221.09 65.8065 220.795 64.0274C220.479 62.2092 220.322 60.391 220.322 58.6315C220.322 56.872 220.499 55.1124 220.873 53.392C221.228 51.7107 221.858 50.1662 222.686 48.7977C223.513 47.4878 224.617 46.4125 226.015 45.611C227.395 44.8094 229.148 44.3988 231.256 44.3988C233.463 44.3988 235.275 44.8094 236.615 45.611C237.974 46.4125 239.038 47.4878 239.787 48.7781C240.575 50.1271 241.127 51.6716 241.422 53.3724C241.737 55.1124 241.895 56.872 241.895 58.6315C241.895 60.391 241.737 62.2092 241.422 64.0274C241.107 65.8065 240.555 67.4291 239.787 68.8368C239.038 70.2053 237.915 71.3392 236.497 72.219V72.219Z" fill="white"/>
<path d="M414.598 22.8153V81.4076C414.598 81.4076 413.121 81.6227 412.175 81.6227C410.343 81.6227 408.766 81.1535 407.486 80.1955C406.107 79.1789 405.417 77.4194 405.417 74.9169V16.3246C405.417 16.3246 406.895 16.1095 407.841 16.1095C409.673 16.1095 411.249 16.5787 412.529 17.5367C413.909 18.5533 414.598 20.3128 414.598 22.8153V22.8153Z" fill="white"/>
<path d="M396.256 22.7957V81.3881C396.256 81.3881 394.778 81.6031 393.833 81.6031C392.001 81.6031 390.424 81.1339 389.144 80.176C387.765 79.1593 387.075 77.3998 387.075 74.8974V16.305C387.075 16.305 388.553 16.0899 389.498 16.0899C391.331 16.0899 392.907 16.5591 394.187 17.5171C395.567 18.5337 396.256 20.2933 396.256 22.7957Z" fill="white"/>
<path d="M377.973 43.1085V80.2737H368.773V77.5758C367.728 78.436 366.467 79.2375 365.01 79.9413C362.764 81.0362 359.867 81.5836 356.4 81.5836C352.933 81.5836 350.017 81.0166 348.007 79.9022C345.998 78.7683 344.461 77.3021 343.476 75.5425C342.51 73.8025 341.919 71.8671 341.742 69.7947C341.565 67.8201 341.466 65.8847 341.466 64.0469V36.4809C341.466 36.4809 343.673 36.4027 343.89 36.4027C345.722 36.4027 347.298 36.8719 348.598 37.7908C349.977 38.7683 350.667 40.5474 350.667 43.0499V64.1251C350.667 66.3539 350.824 68.1134 351.14 69.4037C351.416 70.5572 351.967 71.4174 352.814 72.0039C353.622 72.5904 354.489 72.9814 355.395 73.1965C356.361 73.4115 357.503 73.5288 358.804 73.5288C360.301 73.5288 361.7 73.3138 362.941 72.9032C364.182 72.4927 365.266 71.9844 366.152 71.3783C367.019 70.7918 367.689 70.1466 368.162 69.5015C368.576 68.915 368.812 68.4066 368.812 67.9961V36.4809C368.812 36.4809 371.019 36.4027 371.235 36.4027C373.067 36.4027 374.644 36.8915 375.944 37.8495C377.303 38.8661 378.013 40.6452 378.013 43.1281L377.973 43.1085Z" fill="white"/>
<path d="M437.255 83.3627L421.12 37.4585L421.868 37.1652C423.208 36.6569 424.607 36.4027 426.065 36.4027C427.838 36.4027 429.276 36.9892 430.399 38.1623C431.423 39.2375 432.192 40.5279 432.704 41.9746L441.688 69.5797L450.632 42.7761C450.81 42.131 451.066 41.4272 451.361 40.7234C451.677 39.9805 452.13 39.2766 452.681 38.6315C453.253 37.9668 453.962 37.4194 454.77 37.0284C455.597 36.6178 456.582 36.4223 457.705 36.4223C459.025 36.4223 460.247 36.7155 461.37 37.3021L462 37.6344L445.648 84.8289C444.998 86.7058 444.111 89.1691 443.343 90.8895C442.535 92.6491 441.55 94.2131 440.368 95.5425C439.166 96.8719 437.688 97.9668 435.974 98.7683C434.241 99.5894 432.133 100 429.729 100C427.325 100 425.375 99.6481 423.779 98.9834C421.494 98.0254 421.021 96.4418 421.021 95.2688C421.021 94.3304 421.277 93.3529 421.77 92.3754C422.223 91.4565 422.715 90.6549 423.208 89.9902L423.74 89.2669L424.429 89.8534C424.863 90.2248 425.552 90.6745 426.459 91.2023C427.306 91.6911 428.409 91.9257 429.729 91.9257C431.561 91.9257 432.98 91.261 434.103 89.9316C435.305 88.4848 436.211 86.4712 437.275 83.3627" fill="white"/>
<path d="M47.5988 51.4761C39.403 51.4956 31.1087 52.9423 23.6418 55.8749C19.0317 57.6735 14.0866 60.2737 10.895 64.4379C7.34869 69.0518 7.4078 74.2913 11.4466 78.9052C12.077 79.7067 12.1953 80.6843 11.5451 81.2708C10.5994 82.131 8.96421 81.8182 7.23048 81.2708C6.0878 80.9189 4.17675 80.0587 2.85675 78.4751C2.71884 78.2991 1.32003 76.9501 0.453168 74.3108C-0.413697 71.6716 3.39301e-05 68.524 1.55645 65.5719C4.13735 60.6843 8.51108 57.3998 13.0818 54.9951C23.7403 49.4624 36.172 47.2727 48.2687 47.3118C48.2687 47.3118 50.1206 35.5425 50.9481 30.2444C52.7606 30.9677 57.1147 31.3588 57.2723 31.3392C56.4842 36.4614 54.8884 46.7253 54.7702 47.566C54.8884 47.566 57.9421 47.781 59.3409 47.957C66.5517 48.739 73.8412 50.3617 80.52 53.4506C85.1893 55.6207 90.2132 58.6901 93.0305 63.4604C99.0197 73.5875 89.0508 82.3851 81.3081 86.4125C69.4872 93.2356 52.6621 95.6207 37.7678 93.783C37.3344 93.7243 35.5218 93.5093 34.5565 93.3138C33.1971 93.0205 31.483 92.5318 30.3797 91.3196C28.5081 89.2278 28.6657 88.2111 33.1971 88.7977C35.4036 89.0909 39.8759 89.521 45.3726 89.5601C53.5881 89.4037 62.4735 88.172 68.6794 86.3539C69.763 85.9824 70.8269 85.5523 71.8711 85.1026C78.1756 82.3851 88.44 76.2659 85.6621 67.175C82.8054 57.8495 70.3344 54.4086 62.5917 52.8446C59.932 52.2972 55.2627 51.6911 54.1397 51.6911C53.8245 53.6852 53.2138 57.6735 53.2138 57.7517C55.3218 57.9277 57.3905 58.1623 59.4 58.4946C59.7941 58.5728 60.5033 58.7879 60.9762 59.0225C62.3356 59.6872 62.5326 60.8407 57.2329 61.349C55.243 61.5249 54.8293 61.5249 54.2579 61.4663C54.1003 61.4663 52.8 61.349 52.6424 61.3294C52.3075 63.3431 51.6968 67.1359 51.6968 67.2141C54.4156 67.781 56.3069 68.9932 56.3463 70.4399C56.3857 72.5318 52.5833 74.2913 47.8747 74.3891C43.1463 74.4868 39.2651 72.9032 39.2257 70.8309C39.1863 69.13 41.7081 67.6246 45.215 67.0968C45.215 67.0186 45.8257 63.1281 46.1606 61.0362C40.9594 61.2121 35.7188 62.4438 31.5815 65.3959C29.8084 66.6471 27.523 68.6217 27.7594 71.0655C27.7988 71.6129 27.8776 71.9844 28.2323 72.5709C29.04 73.9394 34.0245 78.9247 47.5397 78.6119C60.2472 78.3187 67.0836 73.4506 67.9899 72.8641C68.7385 72.3558 69.6645 71.3979 70.157 70.6354C70.886 69.306 70.7481 68.739 70.0585 66.9404C69.5463 65.6305 69.8615 62.698 72.9153 64.1838C74.255 64.8094 75.3385 66.2952 75.6538 66.8817C78.4514 71.828 72.5212 76.5396 67.852 78.6901C59.3015 82.6393 49.0173 83.3627 39.8365 82.3851C35.443 81.9159 31.0693 81.0948 26.9714 79.3548C24.3117 78.2405 21.2973 76.6764 19.6621 74.0567C15.9779 68.1525 22.8341 63.5777 27.1487 61.6031C33.197 58.8465 39.9941 57.6344 46.732 57.5171" fill="white"/>
<path d="M72.6986 15.8162C72.6986 24.3988 65.8227 31.3783 57.2329 31.6129C57.0753 31.6129 56.9177 31.6129 56.76 31.6129C54.6914 31.6129 52.7015 31.2219 50.889 30.4985C44.9983 28.172 40.8215 22.4633 40.8215 15.7967C40.8412 7.07722 47.9732 0 56.76 0C65.5469 0 72.6986 7.07722 72.6986 15.8162Z" fill="#D1233E"/>
</g>
<defs>
<clipPath id="clip0_501_3361">
<rect width="462" height="100" fill="white"/>
</clipPath>
</defs>
</svg>
